<svg width="110" height="40" viewBox="0 0 110 40" fill="none" xmlns="http://www.w3.org/2000/svg"><rect width="110" height="40" rx="8" fill="#090909"/><path d="M33.2642 10.2036V9.63685H36.6413V10.2036H35.2798V14.0005H34.6236V10.2036H33.2642ZM37.3606 14.0005H36.6617L38.232 9.63685H38.9927L40.563 14.0005H39.8641L38.6305 10.4295H38.5964L37.3606 14.0005ZM37.4778 12.2917H39.7448V12.8457H37.4778V12.2917ZM38.8734 9.18515H38.3705L38.3535 8.75049C38.5041 8.74339 38.6106 8.7235 38.6731 8.69083C38.7356 8.65674 38.7661 8.60773 38.7647 8.54381C38.7661 8.46711 38.7228 8.41242 38.6347 8.37975C38.5481 8.34708 38.4423 8.33074 38.3173 8.33074L38.3364 7.97918C38.6589 7.97918 38.9032 8.03032 39.0694 8.13259C39.237 8.23486 39.3201 8.37265 39.3187 8.54594C39.3201 8.68657 39.2739 8.79026 39.1802 8.85702C39.0879 8.92236 38.9856 8.96356 38.8734 8.9806V9.18515ZM41.9715 9.63685V14.0005H41.3132V9.63685H41.9715ZM45.1396 9.63685L46.3541 13.1908H46.4031L47.6176 9.63685H48.3293L46.7589 14.0005H45.9983L44.428 9.63685H45.1396ZM49.0794 14.0005V9.63685H51.8152V10.2036H49.7378V11.5332H51.6724V12.0978H49.7378V13.4337H51.8408V14.0005H49.0794ZM50.6795 8.51611L51.5489 9.25546H50.9203L50.4473 8.83358L49.9722 9.25546H49.3457L50.2044 8.51611H50.6795ZM49.1284 8.00049L49.5673 8.78245H49.1092L48.4743 8.00049H49.1284ZM54.3073 10.2036V9.63685H57.6845V10.2036H56.323V14.0005H55.6667V10.2036H54.3073ZM58.5507 14.0005V9.63685H60.1061C60.4442 9.63685 60.7247 9.69509 60.9477 9.81157C61.1722 9.92804 61.3398 10.0893 61.4506 10.2952C61.5614 10.4998 61.6168 10.7363 61.6168 11.0047C61.6168 11.2718 61.5607 11.5069 61.4485 11.71C61.3377 11.9117 61.17 12.0687 60.9456 12.1809C60.7226 12.2931 60.4421 12.3492 60.104 12.3492H58.9257V11.7824H60.0443C60.2574 11.7824 60.4307 11.7519 60.5642 11.6908C60.6992 11.6297 60.7979 11.541 60.8604 11.4245C60.9229 11.308 60.9541 11.1681 60.9541 11.0047C60.9541 10.84 60.9222 10.6972 60.8583 10.5765C60.7958 10.4557 60.697 10.3634 60.5621 10.2995C60.4286 10.2342 60.2531 10.2015 60.0358 10.2015H59.2091V14.0005H58.5507ZM60.7049 12.0317L61.783 14.0005H61.033L59.9762 12.0317H60.7049ZM62.5379 14.0005V9.63685H65.2737V10.2036H63.1963V11.5332H65.131V12.0978H63.1963V13.4337H65.2993V14.0005H62.5379ZM64.3426 9.24481L63.9058 8.67378L63.4669 9.24481H62.8916V9.21285L63.6395 8.30944H64.17L64.92 9.21285V9.24481H64.3426ZM69.7952 9.63685V14.0005H69.1901L66.972 10.8002H66.9315V14.0005H66.2732V9.63685H66.8825L69.1027 12.8414H69.1432V9.63685H69.7952Z" fill="white"/><path d="M25.1932 20.6074C25.2149 18.9174 26.119 17.3183 27.5532 16.4331C26.6484 15.1359 25.1329 14.3134 23.5562 14.2639C21.8746 14.0867 20.2443 15.2741 19.3873 15.2741C18.5138 15.2741 17.1944 14.2815 15.7737 14.3108C13.9217 14.3709 12.1953 15.4279 11.2943 17.0533C9.3575 20.4196 10.8022 25.367 12.6574 28.0881C13.5857 29.4205 14.6705 30.9089 16.09 30.8561C17.4791 30.7983 17.9979 29.9669 19.6746 29.9669C21.3357 29.9669 21.8225 30.8561 23.2707 30.8226C24.7613 30.7983 25.7004 29.4842 26.596 28.1391C27.263 27.1897 27.7762 26.1404 28.1166 25.0301C26.365 24.2863 25.1952 22.5167 25.1932 20.6074Z" fill="white"/><path d="M22.4576 12.4744C23.2703 11.495 23.6707 10.2361 23.5737 8.96509C22.3321 9.096 21.1852 9.69173 20.3615 10.6336C19.5561 11.5538 19.1369 12.7905 19.2162 14.0129C20.4582 14.0258 21.6793 13.4462 22.4576 12.4744Z" fill="white"/><path d="M74.737 18.8619V20.9098H73.4583V22.2528H74.737V26.8161C74.737 28.3743 75.4391 28.9976 77.2056 28.9976C77.516 28.9976 77.8116 28.9605 78.0703 28.9159V27.5878C77.8486 27.61 77.7082 27.6249 77.4643 27.6249C76.6734 27.6249 76.326 27.2539 76.326 26.408V22.2528H78.0703V20.9098H76.326V18.8619H74.737Z" fill="white"/><path d="M82.5703 29.1088C84.9207 29.1088 86.3619 27.5284 86.3619 24.9092C86.3619 22.3048 84.9133 20.7169 82.5703 20.7169C80.22 20.7169 78.7713 22.3048 78.7713 24.9092C78.7713 27.5284 80.2126 29.1088 82.5703 29.1088ZM82.5703 27.6916C81.1882 27.6916 80.4121 26.6751 80.4121 24.9092C80.4121 23.1581 81.1882 22.1341 82.5703 22.1341C83.9451 22.1341 84.7285 23.1581 84.7285 24.9092C84.7285 26.6677 83.9451 27.6916 82.5703 27.6916Z" fill="white"/><path d="M87.5951 28.953H89.1841V24.182C89.1841 23.0468 90.0341 22.2825 91.2389 22.2825C91.5197 22.2825 91.9928 22.3345 92.1258 22.379V20.806C91.9558 20.7614 91.6528 20.7392 91.4163 20.7392C90.3667 20.7392 89.4724 21.3179 89.2433 22.1119H89.125V20.8727H87.5951V28.953Z" fill="white"/><path d="M96.0714 22.0748C97.2466 22.0748 98.0153 22.8984 98.0523 24.1672H93.9872C94.0759 22.9058 94.8963 22.0748 96.0714 22.0748ZM98.0449 26.7716C97.7492 27.4023 97.0914 27.751 96.1306 27.751C94.8593 27.751 94.0389 26.8532 93.9872 25.436V25.3469H99.6709V24.7905C99.6709 22.2528 98.3183 20.7169 96.0788 20.7169C93.8098 20.7169 92.3685 22.3567 92.3685 24.9389C92.3685 27.521 93.7802 29.1088 96.0862 29.1088C97.9266 29.1088 99.2127 28.2185 99.5748 26.7716H98.0449Z" fill="white"/><path d="M64.316 25.9691C64.4386 27.9533 66.0856 29.2222 68.537 29.2222C71.157 29.2222 72.7963 27.8917 72.7963 25.7692C72.7963 24.1003 71.8617 23.1774 69.5942 22.6468L68.3761 22.3469C66.9359 22.0085 66.3537 21.5547 66.3537 20.7626C66.3537 19.7628 67.2577 19.1092 68.6136 19.1092C69.9006 19.1092 70.7892 19.7475 70.9501 20.7703H72.6201C72.5205 18.9015 70.8812 17.5864 68.6366 17.5864C66.2235 17.5864 64.6148 18.9015 64.6148 20.878C64.6148 22.5084 65.5264 23.4774 67.5258 23.9465L68.9507 24.2926C70.4139 24.6386 71.0574 25.1462 71.0574 25.9922C71.0574 26.9766 70.0462 27.6918 68.6672 27.6918C67.1887 27.6918 66.1622 27.0227 66.0167 25.9691H64.316Z" fill="white"/><path d="M47.8548 20.7392C46.7609 20.7392 45.8148 21.2883 45.327 22.2083H45.2088V20.8727H43.6788V31.639H45.2679V27.7287H45.3935C45.8148 28.582 46.7239 29.0866 47.8695 29.0866C49.9021 29.0866 51.1955 27.4765 51.1955 24.9092C51.1955 22.3419 49.9021 20.7392 47.8548 20.7392ZM47.4039 27.6545C46.0735 27.6545 45.2383 26.6009 45.2383 24.9166C45.2383 23.2249 46.0735 22.1712 47.4113 22.1712C48.7565 22.1712 49.5621 23.2026 49.5621 24.9092C49.5621 26.6232 48.7565 27.6545 47.4039 27.6545Z" fill="white"/><path d="M56.756 20.7392C55.6621 20.7392 54.716 21.2883 54.2282 22.2083H54.11V20.8727H52.58V31.639H54.1691V27.7287H54.2947C54.716 28.582 55.6251 29.0866 56.7708 29.0866C58.8033 29.0866 60.0967 27.4765 60.0967 24.9092C60.0967 22.3419 58.8033 20.7392 56.756 20.7392ZM56.3051 27.6545C54.9747 27.6545 54.1395 26.6009 54.1395 24.9166C54.1395 23.2249 54.9747 22.1712 56.3125 22.1712C57.6577 22.1712 58.4633 23.2026 58.4633 24.9092C58.4633 26.6232 57.6577 27.6545 56.3051 27.6545Z" fill="white"/><path d="M40.8277 28.953H42.6509L38.6598 17.8556H36.8135L32.8224 28.953H34.5843L35.6032 26.0076H39.8165L40.8277 28.953ZM37.6486 19.8705H37.7788L39.3799 24.5617H36.0398L37.6486 19.8705Z" fill="white"/></svg>