<svg width="80" height="80" viewBox="0 0 80 80" fill="none" xmlns="http://www.w3.org/2000/svg">
    <circle cx="40" cy="40" r="40" fill="#E5F1FF"/>
    <path d="M56.4844 34.1401H43.7043L46.2415 33.2944L48.2031 31.4687L50.5469 30.6875L51.8868 31.4126L52.8906 29.9062L54.4333 29.3919C54.9116 29.2329 55.2344 28.7854 55.2344 28.2807C55.2344 27.776 54.9116 27.3285 54.4333 27.1694L40.3708 22.4819C40.1305 22.4019 39.8695 22.4019 39.6292 22.4819L25.5667 27.1694C25.0884 27.3287 24.7656 27.7761 24.7656 28.2808C24.7656 28.7854 25.0884 29.2329 25.5667 29.392L31.7969 31.4687L34.0027 33.3759L36.2957 34.1402H23.5156C22.8684 34.1402 22.3438 34.6647 22.3438 35.3121V55.234H57.6562V35.3121C57.6562 34.6647 57.1316 34.1401 56.4844 34.1401V34.1401Z" fill="#1479F4"/>
    <path d="M32.3187 38.6317C32.4744 38.7359 36.1731 41.1724 40 41.1724C43.8269 41.1724 47.5256 38.7359 47.6813 38.6317C48.0074 38.4143 48.2031 38.0481 48.2031 37.6567V31.4696L40.3708 34.0804C40.2506 34.1205 40.1248 34.141 40 34.141C39.8752 34.141 39.7494 34.1204 39.6292 34.0804L31.7969 31.4696V37.6567C31.7969 38.0481 31.9926 38.4143 32.3187 38.6317V38.6317ZM51.7188 41.1723C52.3665 41.1723 52.8906 40.6481 52.8906 40.0004V29.9071L50.5469 30.6884V40.0004C50.5469 40.6481 51.071 41.1723 51.7188 41.1723ZM58.8281 52.891H21.1719C20.5247 52.891 20 53.4157 20 54.0629C20 56.0045 21.574 57.5785 23.5156 57.5785H56.4844C58.426 57.5785 60 56.0045 60 54.0629C60 53.4157 59.4753 52.891 58.8281 52.891Z" fill="url(#paint0_linear)"/>
    <defs>
        <linearGradient id="paint0_linear" x1="40" y1="57.5785" x2="40" y2="29.9072" gradientUnits="userSpaceOnUse">
            <stop stop-color="#ADDCFF"/>
            <stop offset="0.5028" stop-color="#EAF6FF"/>
            <stop offset="1" stop-color="#EAF6FF"/>
        </linearGradient>
    </defs>
</svg>
