<svg class="ml-[-1px] mt-[-2px]" xmlns="http://www.w3.org/2000/svg" width="40" height="40" viewBox="0 0 40 40" fill="none"><path d="M32.7575 3.75H31.25V2.5C31.25 2.16848 31.1183 1.85054 30.8839 1.61612C30.6495 1.3817 30.3315 1.25 30 1.25C29.6685 1.25 29.3505 1.3817 29.1161 1.61612C28.8817 1.85054 28.75 2.16848 28.75 2.5V3.75H21.25V2.5C21.25 2.16848 21.1183 1.85054 20.8839 1.61612C20.6495 1.3817 20.3315 1.25 20 1.25C19.6685 1.25 19.3505 1.3817 19.1161 1.61612C18.8817 1.85054 18.75 2.16848 18.75 2.5V3.75H11.25V2.5C11.25 2.16848 11.1183 1.85054 10.8839 1.61612C10.6495 1.3817 10.3315 1.25 10 1.25C9.66848 1.25 9.35054 1.3817 9.11612 1.61612C8.8817 1.85054 8.75 2.16848 8.75 2.5V3.75H7.2425C5.98532 3.75198 4.7802 4.25227 3.89124 5.14124C3.00228 6.0302 2.50198 7.23532 2.5 8.4925V34.0075C2.50198 35.2647 3.00228 36.4698 3.89124 37.3588C4.7802 38.2477 5.98532 38.748 7.2425 38.75H32.7575C34.0147 38.748 35.2198 38.2477 36.1088 37.3588C36.9977 36.4698 37.498 35.2647 37.5 34.0075V8.4925C37.498 7.23532 36.9977 6.0302 36.1088 5.14124C35.2198 4.25227 34.0147 3.75198 32.7575 3.75ZM17.1325 25.8838L13.3825 29.6338C13.1481 29.8681 12.8302 29.9997 12.4987 29.9997C12.1673 29.9997 11.8494 29.8681 11.615 29.6338L9.115 27.1338C8.99561 27.0184 8.90038 26.8805 8.83487 26.728C8.76936 26.5755 8.73488 26.4115 8.73344 26.2455C8.73199 26.0795 8.76362 25.9149 8.82647 25.7613C8.88932 25.6077 8.98214 25.4681 9.09951 25.3508C9.21687 25.2334 9.35644 25.1406 9.51006 25.0777C9.66368 25.0149 9.82828 24.9832 9.99425 24.9847C10.1602 24.9861 10.3243 25.0206 10.4768 25.0861C10.6293 25.1516 10.7672 25.2469 10.8825 25.3662L12.5 26.9825L15.3663 24.1162C15.602 23.8886 15.9178 23.7626 16.2455 23.7654C16.5732 23.7683 16.8868 23.8997 17.1185 24.1315C17.3503 24.3632 17.4817 24.6768 17.4846 25.0045C17.4874 25.3322 17.3602 25.648 17.1325 25.8838ZM17.1325 14.6337L13.3825 18.3837C13.1481 18.6181 12.8302 18.7497 12.4987 18.7497C12.1673 18.7497 11.8494 18.6181 11.615 18.3837L9.115 15.8837C8.99561 15.7684 8.90038 15.6305 8.83487 15.478C8.76936 15.3255 8.73488 15.1615 8.73344 14.9955C8.73199 14.8295 8.76362 14.6649 8.82647 14.5113C8.88932 14.3577 8.98214 14.2181 9.09951 14.1008C9.21687 13.9834 9.35644 13.8906 9.51006 13.8277C9.66368 13.7649 9.82828 13.7332 9.99425 13.7347C10.1602 13.7361 10.3243 13.7706 10.4768 13.8361C10.6293 13.9016 10.7672 13.9969 10.8825 14.1163L12.5 15.7325L15.3663 12.8663C15.602 12.6386 15.9178 12.5126 16.2455 12.5154C16.5732 12.5183 16.8868 12.6497 17.1185 12.8815C17.3503 13.1132 17.4817 13.4268 17.4846 13.7545C17.4874 14.0822 17.3602 14.398 17.1325 14.6337ZM30 28.75H21.25C20.9185 28.75 20.6005 28.6183 20.3661 28.3839C20.1317 28.1495 20 27.8315 20 27.5C20 27.1685 20.1317 26.8505 20.3661 26.6161C20.6005 26.3817 20.9185 26.25 21.25 26.25H30C30.3315 26.25 30.6495 26.3817 30.8839 26.6161C31.1183 26.8505 31.25 27.1685 31.25 27.5C31.25 27.8315 31.1183 28.1495 30.8839 28.3839C30.6495 28.6183 30.3315 28.75 30 28.75ZM30 17.5H21.25C20.9185 17.5 20.6005 17.3683 20.3661 17.1339C20.1317 16.8995 20 16.5815 20 16.25C20 15.9185 20.1317 15.6005 20.3661 15.3661C20.6005 15.1317 20.9185 15 21.25 15H30C30.3315 15 30.6495 15.1317 30.8839 15.3661C31.1183 15.6005 31.25 15.9185 31.25 16.25C31.25 16.5815 31.1183 16.8995 30.8839 17.1339C30.6495 17.3683 30.3315 17.5 30 17.5Z" fill="#1CBB44"></path></svg>