<svg width="80" height="80" viewBox="0 0 80 80" fill="none" xmlns="http://www.w3.org/2000/svg">
    <circle cx="40" cy="40" r="40" fill="#FEF1D7"/>
    <g clip-path="url(#clip0)">
        <path d="M58.8281 36.9062H50.5469V27.8437C50.5469 27.4921 50.3828 27.1405 50.1016 26.9297L40.7266 19.4297C40.3047 19.078 39.6953 19.078 39.2734 19.4297L29.8984 26.9297C29.6172 27.1405 29.4531 27.4922 29.4531 27.8437V36.9062H21.1719C20.5155 36.9062 20 37.4218 20 38.0781V56.8281C20 57.4843 20.5155 58 21.1719 58H36.4844C36.4844 57.3437 36.9999 56.8281 37.6562 56.8281H42.3438C43.0001 56.8281 43.5156 57.3437 43.5156 58H58.8281C59.4845 58 60 57.4843 60 56.8281V38.0781C60 37.4218 59.4845 36.9062 58.8281 36.9062V36.9062Z" fill="#FFBE3D"/>
        <path d="M25.9375 41.5938C25.2898 41.5938 24.7656 42.1179 24.7656 42.7656V45.1094C24.7656 45.7571 25.2898 46.2813 25.9375 46.2813C26.5852 46.2813 27.1094 45.7571 27.1094 45.1094V42.7656C27.1094 42.1179 26.5852 41.5938 25.9375 41.5938ZM30.625 41.5938C29.9773 41.5938 29.4531 42.1179 29.4531 42.7656V45.1094C29.4531 45.7571 29.9773 46.2813 30.625 46.2813C31.2727 46.2813 31.7969 45.7571 31.7969 45.1094V42.7656C31.7969 42.1179 31.2727 41.5938 30.625 41.5938ZM49.375 41.5938C48.7273 41.5938 48.2031 42.1179 48.2031 42.7656V45.1094C48.2031 45.7571 48.7273 46.2813 49.375 46.2813C50.0227 46.2813 50.5469 45.7571 50.5469 45.1094V42.7656C50.5469 42.1179 50.0227 41.5938 49.375 41.5938ZM49.375 48.625C48.7273 48.625 48.2031 49.1491 48.2031 49.7969V52.1406C48.2031 52.7884 48.7273 53.3125 49.375 53.3125C50.0227 53.3125 50.5469 52.7884 50.5469 52.1406V49.7969C50.5469 49.1491 50.0227 48.625 49.375 48.625ZM30.625 48.625C29.9773 48.625 29.4531 49.1491 29.4531 49.7969V52.1406C29.4531 52.7884 29.9773 53.3125 30.625 53.3125C31.2727 53.3125 31.7969 52.7884 31.7969 52.1406V49.7969C31.7969 49.1491 31.2727 48.625 30.625 48.625ZM25.9375 48.625C25.2898 48.625 24.7656 49.1491 24.7656 49.7969V52.1406C24.7656 52.7884 25.2898 53.3125 25.9375 53.3125C26.5852 53.3125 27.1094 52.7884 27.1094 52.1406V49.7969C27.1094 49.1491 26.5852 48.625 25.9375 48.625ZM54.0625 41.5938C53.4148 41.5938 52.8906 42.1179 52.8906 42.7656V45.1094C52.8906 45.7571 53.4148 46.2813 54.0625 46.2813C54.7102 46.2813 55.2344 45.7571 55.2344 45.1094V42.7656C55.2344 42.1179 54.7102 41.5938 54.0625 41.5938ZM54.0625 48.625C53.4148 48.625 52.8906 49.1491 52.8906 49.7969V52.1406C52.8906 52.7884 53.4148 53.3125 54.0625 53.3125C54.7102 53.3125 55.2344 52.7884 55.2344 52.1406V49.7969C55.2344 49.1491 54.7102 48.625 54.0625 48.625ZM52.4512 27.6314L40.7324 18.2564C40.3022 17.9154 39.6979 17.9154 39.2676 18.2564L27.5488 27.6314C27.043 28.0366 26.9629 28.7735 27.3658 29.2794C27.7709 29.7852 28.5056 29.8688 29.0137 29.4625L40 20.6722L50.9863 29.4624C51.2038 29.6352 51.4602 29.7188 51.7188 29.7188C52.0621 29.7188 52.4031 29.5677 52.6343 29.2793C53.0371 28.7735 52.957 28.0365 52.4512 27.6314V27.6314ZM42.3438 48.625H37.6562C36.9999 48.625 36.4844 49.1406 36.4844 49.7969V58H43.5156V49.7969C43.5156 49.1406 43.0001 48.625 42.3438 48.625ZM35.3125 39.25C35.9602 39.25 36.4844 38.7259 36.4844 38.0781V35.7344C36.4844 35.0866 35.9602 34.5625 35.3125 34.5625C34.6648 34.5625 34.1406 35.0866 34.1406 35.7344V38.0781C34.1406 38.7259 34.6648 39.25 35.3125 39.25ZM36.4844 42.7656C36.4844 42.1179 35.9602 41.5938 35.3125 41.5938C34.6648 41.5938 34.1406 42.1179 34.1406 42.7656V45.1094C34.1406 45.7571 34.6648 46.2813 35.3125 46.2813C35.9602 46.2813 36.4844 45.7571 36.4844 45.1094V42.7656ZM44.6875 34.5625C44.0398 34.5625 43.5156 35.0866 43.5156 35.7344V38.0781C43.5156 38.7259 44.0398 39.25 44.6875 39.25C45.3352 39.25 45.8594 38.7259 45.8594 38.0781V35.7344C45.8594 35.0866 45.3352 34.5625 44.6875 34.5625ZM44.6875 41.5938C44.0398 41.5938 43.5156 42.1179 43.5156 42.7656V45.1094C43.5156 45.7571 44.0398 46.2813 44.6875 46.2813C45.3352 46.2813 45.8594 45.7571 45.8594 45.1094V42.7656C45.8594 42.1179 45.3352 41.5938 44.6875 41.5938ZM41.1719 35.7344C41.1719 35.0866 40.6477 34.5625 40 34.5625C39.3523 34.5625 38.8281 35.0866 38.8281 35.7344V38.0781C38.8281 38.7259 39.3523 39.25 40 39.25C40.6477 39.25 41.1719 38.7259 41.1719 38.0781V35.7344ZM40 41.5938C39.3523 41.5938 38.8281 42.1179 38.8281 42.7656V45.1094C38.8281 45.7571 39.3523 46.2813 40 46.2813C40.6477 46.2813 41.1719 45.7571 41.1719 45.1094V42.7656C41.1719 42.1179 40.6477 41.5938 40 41.5938ZM43.5156 28.5469C43.5156 26.6083 41.9386 25.0313 40 25.0313C38.0614 25.0313 36.4844 26.6083 36.4844 28.5469C36.4844 30.4855 38.0614 32.0625 40 32.0625C41.9386 32.0625 43.5156 30.4856 43.5156 28.5469Z" fill="#FFE2AA"/>
    </g>
    <defs>
        <clipPath id="clip0">
            <rect width="40" height="40" fill="white" transform="translate(20 18)"/>
        </clipPath>
    </defs>
</svg>
