<svg xmlns="http://www.w3.org/2000/svg" width="40" height="40" viewBox="0 0 40 40" fill="none"><path d="M24.7656 2.42358H3.51562C1.57023 2.42358 0 3.99382 0 5.93921V20.0017C0 21.9469 1.57023 23.5173 3.51562 23.5173H4.6875V27.033C4.6875 27.8796 5.56414 28.4927 6.42188 28.0642C6.44531 28.0408 6.49227 28.0408 6.5157 28.0173C12.9623 23.6942 11.5175 24.6581 12.961 23.7048C13.1484 23.5876 13.3594 23.5173 13.5938 23.5173H24.7656C26.711 23.5173 28.2812 21.9469 28.2812 20.0017V5.93921C28.2812 3.99382 26.711 2.42358 24.7656 2.42358ZM15.3906 16.4861H5.85938C4.31461 16.4861 4.30828 14.1423 5.85938 14.1423H15.3906C16.9354 14.1423 16.9417 16.4861 15.3906 16.4861ZM22.4219 11.7986H5.85938C4.31461 11.7986 4.30828 9.45483 5.85938 9.45483H22.4219C23.9666 9.45483 23.973 11.7986 22.4219 11.7986Z" fill="#0047FF"></path><path d="M36.4844 11.7986H30.625V20.0017C30.625 23.2361 28 25.8611 24.7656 25.8611H13.9453L11.7188 27.3376V29.3767C11.7188 31.3219 13.289 32.8923 15.2344 32.8923H26.7577L33.4843 37.3923C34.4024 37.902 35.3125 37.2821 35.3125 36.408V32.8923H36.4844C38.4298 32.8923 40 31.3219 40 29.3767V15.3142C40 13.3689 38.4298 11.7986 36.4844 11.7986Z" fill="#0047FF"></path></svg>