<svg width="110" height="40" viewBox="0 0 110 40" fill="none" xmlns="http://www.w3.org/2000/svg"><rect width="110" height="40" rx="8" fill="#090909"/><path d="M33.2642 10.2031V9.63636H36.6413V10.2031H35.2798V14H34.6236V10.2031H33.2642ZM37.3606 14H36.6617L38.232 9.63636H38.9927L40.563 14H39.8641L38.6305 10.429H38.5964L37.3606 14ZM37.4778 12.2912H39.7448V12.8452H37.4778V12.2912ZM38.8734 9.18466H38.3705L38.3535 8.75C38.5041 8.7429 38.6106 8.72301 38.6731 8.69034C38.7356 8.65625 38.7661 8.60724 38.7647 8.54332C38.7661 8.46662 38.7228 8.41193 38.6347 8.37926C38.5481 8.34659 38.4423 8.33026 38.3173 8.33026L38.3364 7.97869C38.6589 7.97869 38.9032 8.02983 39.0694 8.1321C39.237 8.23437 39.3201 8.37216 39.3187 8.54545C39.3201 8.68608 39.2739 8.78977 39.1802 8.85653C39.0879 8.92187 38.9856 8.96307 38.8734 8.98011V9.18466ZM41.9715 9.63636V14H41.3132V9.63636H41.9715ZM45.1396 9.63636L46.3541 13.1903H46.4031L47.6176 9.63636H48.3293L46.7589 14H45.9983L44.428 9.63636H45.1396ZM49.0794 14V9.63636H51.8152V10.2031H49.7378V11.5327H51.6724V12.0973H49.7378V13.4332H51.8408V14H49.0794ZM50.6795 8.51562L51.5489 9.25497H50.9203L50.4473 8.8331L49.9722 9.25497H49.3457L50.2044 8.51562H50.6795ZM49.1284 8L49.5673 8.78196H49.1092L48.4743 8H49.1284ZM54.3073 10.2031V9.63636H57.6845V10.2031H56.323V14H55.6667V10.2031H54.3073ZM58.5507 14V9.63636H60.1061C60.4442 9.63636 60.7247 9.6946 60.9477 9.81108C61.1722 9.92756 61.3398 10.0888 61.4506 10.2947C61.5614 10.4993 61.6168 10.7358 61.6168 11.0043C61.6168 11.2713 61.5607 11.5064 61.4485 11.7095C61.3377 11.9112 61.17 12.0682 60.9456 12.1804C60.7226 12.2926 60.4421 12.3487 60.104 12.3487H58.9257V11.782H60.0443C60.2574 11.782 60.4307 11.7514 60.5642 11.6903C60.6992 11.6293 60.7979 11.5405 60.8604 11.424C60.9229 11.3075 60.9541 11.1676 60.9541 11.0043C60.9541 10.8395 60.9222 10.6967 60.8583 10.576C60.7958 10.4553 60.697 10.3629 60.5621 10.299C60.4286 10.2337 60.2531 10.201 60.0358 10.201H59.2091V14H58.5507ZM60.7049 12.0312L61.783 14H61.033L59.9762 12.0312H60.7049ZM62.5379 14V9.63636H65.2737V10.2031H63.1963V11.5327H65.131V12.0973H63.1963V13.4332H65.2993V14H62.5379ZM64.3426 9.24432L63.9058 8.6733L63.4669 9.24432H62.8916V9.21236L63.6395 8.30895H64.17L64.92 9.21236V9.24432H64.3426ZM69.7952 9.63636V14H69.1901L66.972 10.7997H66.9315V14H66.2732V9.63636H66.8825L69.1027 12.8409H69.1432V9.63636H69.7952Z" fill="white"/><g filter="url(#filter0_ii_2366_6184)"><path d="M10.7114 10.1294C10.4795 10.3758 10.3425 10.7582 10.3425 11.2534V28.9462C10.3425 29.4422 10.4795 29.8238 10.7114 30.0702L10.7704 30.1278L20.6431 20.2166V20.0998V19.983L10.7704 10.071L10.7114 10.1294Z" fill="url(#paint0_linear_2366_6184)"/><path d="M23.9332 23.5214L20.6429 20.2166V20.0998V19.983L23.934 16.679L24.0081 16.7214L27.9073 18.9454C29.0206 19.5806 29.0206 20.6198 27.9073 21.2558L24.0081 23.4798L23.9332 23.5214Z" fill="url(#paint1_linear_2366_6184)"/><g filter="url(#filter1_i_2366_6184)"><path d="M24.0083 23.4789L20.6422 20.0997L10.7114 30.0701C11.078 30.4605 11.6844 30.5085 12.3673 30.1197L24.0083 23.4789Z" fill="url(#paint2_linear_2366_6184)"/></g><path d="M24.0083 16.7206L12.3673 10.0806C11.6844 9.69103 11.078 9.73983 10.7114 10.1302L20.643 20.1006L24.0083 16.7206Z" fill="url(#paint3_linear_2366_6184)"/></g><path d="M53.7821 21.0679C52.0119 21.0679 50.5691 22.4137 50.5691 24.2672C50.5691 26.1095 52.0119 27.4666 53.7821 27.4666C55.553 27.4666 56.9958 26.1095 56.9958 24.2672C56.9951 22.4137 55.5523 21.0679 53.7821 21.0679ZM53.7821 26.2073C52.8119 26.2073 51.9758 25.4077 51.9758 24.268C51.9758 23.1163 52.8127 22.3287 53.7821 22.3287C54.7522 22.3287 55.5884 23.1163 55.5884 24.268C55.5884 25.4069 54.7522 26.2073 53.7821 26.2073ZM46.772 21.0679C45.0018 21.0679 43.559 22.4137 43.559 24.2672C43.559 26.1095 45.0018 27.4666 46.772 27.4666C48.543 27.4666 49.9858 26.1095 49.9858 24.2672C49.9858 22.4137 48.543 21.0679 46.772 21.0679ZM46.772 26.2073C45.8019 26.2073 44.9657 25.4077 44.9657 24.268C44.9657 23.1163 45.8026 22.3287 46.772 22.3287C47.7422 22.3287 48.5784 23.1163 48.5784 24.268C48.5791 25.4069 47.7422 26.2073 46.772 26.2073ZM38.4343 22.0503V23.4074H41.6842C41.5871 24.171 41.3327 24.7284 40.9444 25.1158C40.4717 25.5882 39.7319 26.1095 38.4343 26.1095C36.4338 26.1095 34.8698 24.4974 34.8698 22.4979C34.8698 20.4984 36.4338 18.8864 38.4343 18.8864C39.5136 18.8864 40.3016 19.3106 40.8834 19.856L41.8415 18.8984C41.0287 18.1228 39.9501 17.5293 38.4343 17.5293C35.694 17.5293 33.3902 19.759 33.3902 22.4979C33.3902 25.2369 35.694 27.4666 38.4343 27.4666C39.9133 27.4666 41.0294 26.9814 41.9017 26.0727C42.7989 25.176 43.0781 23.9152 43.0781 22.8974C43.0781 22.5829 43.054 22.2918 43.0051 22.0496L38.4343 22.0503ZM72.5348 23.1043C72.2683 22.3896 71.4555 21.0679 69.7944 21.0679C68.1454 21.0679 66.7748 22.3648 66.7748 24.2672C66.7748 26.0606 68.1334 27.4666 69.9517 27.4666C71.4186 27.4666 72.2676 26.5699 72.6198 26.0486L71.5285 25.3212C71.165 25.8545 70.6675 26.2058 69.9517 26.2058C69.2367 26.2058 68.7272 25.8786 68.3998 25.2362L72.68 23.4668L72.5348 23.1043ZM68.1695 24.171C68.1334 22.9342 69.1276 22.3046 69.8433 22.3046C70.401 22.3046 70.8737 22.5837 71.0318 22.9831L68.1695 24.171ZM64.69 27.2733H66.096V17.8693H64.69V27.2733ZM62.3855 21.7833H62.3373C62.0219 21.4072 61.4153 21.0679 60.6522 21.0679C59.0513 21.0679 57.5844 22.4739 57.5844 24.28C57.5844 26.0734 59.0513 27.4673 60.6522 27.4673C61.4161 27.4673 62.0219 27.1281 62.3373 26.7407H62.3855V27.201C62.3855 28.425 61.7307 29.0794 60.6762 29.0794C59.8152 29.0794 59.2816 28.4618 59.0633 27.9405L57.8388 28.4498C58.1903 29.2976 59.1235 30.3402 60.6762 30.3402C62.3253 30.3402 63.7199 29.3705 63.7199 27.007V21.2627H62.3862L62.3855 21.7833ZM60.7733 26.2073C59.8032 26.2073 58.9911 25.3949 58.9911 24.28C58.9911 23.1524 59.8032 22.3287 60.7733 22.3287C61.7307 22.3287 62.4826 23.1524 62.4826 24.28C62.4826 25.3949 61.7307 26.2073 60.7733 26.2073ZM79.1233 17.8693H75.7583V27.2733H77.162V23.7106H79.1226C80.679 23.7106 82.2099 22.5845 82.2099 20.7903C82.2099 18.9962 80.6798 17.8693 79.1233 17.8693ZM79.1595 22.4017H77.162V19.1782H79.1595C80.2094 19.1782 80.8055 20.0471 80.8055 20.7903C80.8055 21.5185 80.2094 22.4017 79.1595 22.4017ZM87.8389 21.0514C86.8221 21.0514 85.7691 21.4989 85.3333 22.4912L86.5797 23.011C86.8461 22.4912 87.3429 22.3212 87.863 22.3212C88.5892 22.3212 89.3276 22.7567 89.3396 23.5308V23.6278C89.0852 23.4826 88.5403 23.2652 87.875 23.2652C86.5315 23.2652 85.1632 24.0032 85.1632 25.3821C85.1632 26.6406 86.2651 27.4508 87.4994 27.4508C88.4432 27.4508 88.9641 27.0273 89.2907 26.5308H89.3389V27.2567H90.6951V23.6512C90.6959 21.9826 89.448 21.0514 87.8389 21.0514ZM87.6688 26.2051C87.2097 26.2051 86.5677 25.9749 86.5677 25.4062C86.5677 24.6802 87.367 24.4019 88.0571 24.4019C88.6735 24.4019 88.9648 24.5351 89.3396 24.7163C89.2305 25.5882 88.4801 26.2051 87.6688 26.2051ZM95.6339 21.2567L94.024 25.3339H93.9759L92.305 21.2567H90.7922L93.2977 26.9551L91.8692 30.1251H93.3339L97.1956 21.2567H95.6339ZM82.9851 27.2733H84.3888V17.8693H82.9851V27.2733Z" fill="white"/><defs><filter id="filter0_ii_2366_6184" x="10.3425" y="9.81177" width="18.3998" height="20.5765" filterUnits="userSpaceOnUse" color-interpolation-filters="sRGB"><feFlood flood-opacity="0" result="BackgroundImageFix"/><feBlend mode="normal" in="SourceGraphic" in2="BackgroundImageFix" result="shape"/><feColorMatrix in="SourceAlpha" type="matrix" values="0 0 0 0 0 0 0 0 0 0 0 0 0 0 0 0 0 0 127 0" result="hardAlpha"/><feOffset dy="-0.795"/><feComposite in2="hardAlpha" operator="arithmetic" k2="-1" k3="1"/><feColorMatrix type="matrix" values="0 0 0 0 0 0 0 0 0 0 0 0 0 0 0 0 0 0 0.12 0"/><feBlend mode="normal" in2="shape" result="effect1_innerShadow_2366_6184"/><feColorMatrix in="SourceAlpha" type="matrix" values="0 0 0 0 0 0 0 0 0 0 0 0 0 0 0 0 0 0 127 0" result="hardAlpha"/><feOffset dy="0.795"/><feComposite in2="hardAlpha" operator="arithmetic" k2="-1" k3="1"/><feColorMatrix type="matrix" values="0 0 0 0 1 0 0 0 0 1 0 0 0 0 1 0 0 0 0.25 0"/><feBlend mode="normal" in2="effect1_innerShadow_2366_6184" result="effect2_innerShadow_2366_6184"/></filter><filter id="filter1_i_2366_6184" x="10.7114" y="20.0997" width="13.2969" height="10.2886" filterUnits="userSpaceOnUse" color-interpolation-filters="sRGB"><feFlood flood-opacity="0" result="BackgroundImageFix"/><feBlend mode="normal" in="SourceGraphic" in2="BackgroundImageFix" result="shape"/><feColorMatrix in="SourceAlpha" type="matrix" values="0 0 0 0 0 0 0 0 0 0 0 0 0 0 0 0 0 0 127 0" result="hardAlpha"/><feOffset dy="-0.795"/><feComposite in2="hardAlpha" operator="arithmetic" k2="-1" k3="1"/><feColorMatrix type="matrix" values="0 0 0 0 0 0 0 0 0 0 0 0 0 0 0 0 0 0 0.08 0"/><feBlend mode="normal" in2="shape" result="effect1_innerShadow_2366_6184"/></filter><linearGradient id="paint0_linear_2366_6184" x1="19.7679" y1="11.0662" x2="6.34242" y2="24.4395" gradientUnits="userSpaceOnUse"><stop stop-color="#00A0FF"/><stop offset="0.0066" stop-color="#00A1FF"/><stop offset="0.2601" stop-color="#00BEFF"/><stop offset="0.5122" stop-color="#00D2FF"/><stop offset="0.7604" stop-color="#00DFFF"/><stop offset="1" stop-color="#00E3FF"/></linearGradient><linearGradient id="paint1_linear_2366_6184" x1="29.3564" y1="20.0998" x2="10.075" y2="20.0998" gradientUnits="userSpaceOnUse"><stop stop-color="#FFE000"/><stop offset="0.4087" stop-color="#FFBD00"/><stop offset="0.7754" stop-color="#FFA500"/><stop offset="1" stop-color="#FF9C00"/></linearGradient><linearGradient id="paint2_linear_2366_6184" x1="22.1803" y1="21.9349" x2="3.97365" y2="40.0707" gradientUnits="userSpaceOnUse"><stop stop-color="#FF3A44"/><stop offset="1" stop-color="#C31162"/></linearGradient><linearGradient id="paint3_linear_2366_6184" x1="8.21028" y1="4.24047" x2="16.3401" y2="12.3386" gradientUnits="userSpaceOnUse"><stop stop-color="#32A071"/><stop offset="0.0685" stop-color="#2DA771"/><stop offset="0.4762" stop-color="#15CF74"/><stop offset="0.8009" stop-color="#06E775"/><stop offset="1" stop-color="#00F076"/></linearGradient></defs></svg>