<svg width="84" height="24" viewBox="0 0 84 24" fill="none" xmlns="http://www.w3.org/2000/svg">
<g clip-path="url(#clip0_13959_122015)">
<path d="M0 4.80079V2.53582C0 1.13445 1.13445 0 2.53582 0H24.1727V21.4642C24.1727 22.8656 23.0383 24 21.6369 24H9.6683V19.2385H18.4573C18.9401 19.2385 19.3327 18.8459 19.3327 18.3631V4.80079H0Z" fill="#1479F3"/>
<path d="M0 19.949V22.4848C0 23.8862 1.13445 24 2.53582 24H4.83611V9.60156H0V19.9529V19.949Z" fill="#1479F3"/>
<path d="M29.0363 19.0263C28.9421 18.9321 28.895 18.8143 28.895 18.6769V5.35796C28.895 5.20879 28.9382 5.08318 29.0285 4.98897C29.1187 4.89476 29.2365 4.84766 29.3857 4.84766H34.8695C36.5181 4.84766 37.8175 5.23627 38.7556 6.0135C39.6977 6.79074 40.1688 7.92126 40.1688 9.40899C40.1688 10.8967 39.6977 11.9958 38.7556 12.7534C37.8135 13.5111 36.5181 13.8879 34.8695 13.8879H31.8626V18.6769C31.8626 18.8261 31.8155 18.9478 31.7213 19.0341C31.6271 19.1244 31.5015 19.1676 31.3523 19.1676H29.3896C29.2522 19.1676 29.1384 19.1205 29.0402 19.0223M34.7713 11.5954C35.5643 11.5954 36.1649 11.407 36.581 11.0341C36.9971 10.6612 37.2051 10.1116 37.2051 9.38544C37.2051 8.65924 37.0049 8.12538 36.6006 7.72891C36.1963 7.33245 35.5878 7.13617 34.7674 7.13617H31.8194V11.5954H34.7674H34.7713Z" fill="#515151"/>
<path d="M43.5643 19.0263C43.4701 18.9321 43.423 18.8143 43.423 18.6769V5.35796C43.423 5.20879 43.4662 5.08318 43.5564 4.98897C43.6467 4.89476 43.7645 4.84766 43.9137 4.84766H49.213C50.8891 4.84766 52.2041 5.23627 53.1502 6.0135C54.0962 6.79074 54.5712 7.89378 54.5712 9.32656C54.5712 10.3236 54.3317 11.1558 53.8528 11.831C53.3739 12.5061 52.7066 12.9929 51.8469 13.2952L54.8145 18.512C54.8538 18.5945 54.8773 18.669 54.8773 18.7358C54.8773 18.8575 54.8342 18.9595 54.7439 19.042C54.6536 19.1244 54.5555 19.1637 54.4455 19.1637H52.5653C52.3454 19.1637 52.1767 19.1126 52.055 19.0106C51.9333 18.9085 51.8234 18.775 51.7292 18.6102L49.1109 13.7623H46.3082V18.673C46.3082 18.8104 46.261 18.9242 46.1668 19.0223C46.0726 19.1165 45.947 19.1637 45.7978 19.1637H43.9137C43.7763 19.1637 43.6624 19.1165 43.5643 19.0223M49.1502 11.4306C49.9706 11.4306 50.5829 11.25 50.9912 10.8889C51.3994 10.5277 51.6035 9.9978 51.6035 9.30301C51.6035 8.60821 51.3994 8.07042 50.9912 7.69751C50.5829 7.32067 49.9666 7.13617 49.1502 7.13617H46.3082V11.4345H49.1502V11.4306Z" fill="#515151"/>
<path d="M58.3788 19.0263C58.2846 18.9321 58.2375 18.8143 58.2375 18.6769V5.35798C58.2375 5.20881 58.2807 5.08713 58.371 4.98899C58.4612 4.89478 58.579 4.84375 58.7282 4.84375H67.7527C67.9019 4.84375 68.0275 4.89085 68.1217 4.98899C68.2159 5.0832 68.263 5.20881 68.263 5.35798V6.72795C68.263 6.87712 68.2159 6.9988 68.1217 7.08516C68.0275 7.17545 67.9019 7.21863 67.7527 7.21863H61.0402V10.7986H67.3013C67.4504 10.7986 67.5721 10.8457 67.6703 10.9438C67.7645 11.0381 67.8155 11.1637 67.8155 11.3128V12.6004C67.8155 12.7495 67.7684 12.8712 67.6703 12.9576C67.5761 13.0479 67.4504 13.0911 67.3013 13.0911H61.0402V16.7927H67.9136C68.0628 16.7927 68.1845 16.8359 68.2826 16.9262C68.3768 17.0165 68.4239 17.1342 68.4239 17.2834V18.673C68.4239 18.8222 68.3768 18.9438 68.2826 19.0302C68.1884 19.1205 68.0628 19.1637 67.9136 19.1637H58.7282C58.5908 19.1637 58.4769 19.1166 58.3788 19.0224" fill="#515151"/>
<path d="M72.1492 19.0263C72.055 18.9321 72.0039 18.8143 72.0039 18.6769V5.35796C72.0039 5.20879 72.0471 5.08318 72.1374 4.98897C72.2277 4.89476 72.3454 4.84766 72.4946 4.84766H77.9784C79.6271 4.84766 80.9264 5.23627 81.8646 6.0135C82.8067 6.79074 83.2777 7.92126 83.2777 9.40899C83.2777 10.8967 82.8067 11.9958 81.8646 12.7534C80.9225 13.5111 79.6271 13.8879 77.9784 13.8879H74.9716V18.6769C74.9716 18.8261 74.9244 18.9478 74.8263 19.0341C74.7321 19.1244 74.6065 19.1676 74.4573 19.1676H72.4946C72.3572 19.1676 72.2434 19.1205 72.1453 19.0223M77.8724 11.5954C78.6614 11.5954 79.266 11.407 79.6821 11.0341C80.0982 10.6612 80.3062 10.1116 80.3062 9.38544C80.3062 8.65924 80.106 8.12538 79.7017 7.72891C79.2974 7.33245 78.6889 7.13617 77.8724 7.13617H74.9244V11.5954H77.8724Z" fill="#515151"/>
<path d="M13.8489 9.58203H10.3199C9.95879 9.58203 9.66438 9.87251 9.66438 10.2376V13.7665C9.66438 14.1277 9.95486 14.4221 10.3199 14.4221H13.8489C14.21 14.4221 14.5044 14.1316 14.5044 13.7665V10.2376C14.5044 9.87644 14.21 9.58203 13.8489 9.58203Z" fill="#FF9E00"/>
</g>
<defs>
<clipPath id="clip0_13959_122015">
<rect width="83.2777" height="24" fill="white"/>
</clipPath>
</defs>
</svg>
