<svg width="80" height="80" viewBox="0 0 80 80" fill="none" xmlns="http://www.w3.org/2000/svg"><circle cx="40" cy="40" r="40" fill="#FFE3DE"/><path d="M48.2031 24.5156H27.1094V52.6406H48.2031V24.5156ZM55.2344 25.6875H50.5469C49.8991 25.6875 49.375 26.2116 49.375 26.8594V53.8125H29.4531C28.8054 53.8125 28.2812 54.3366 28.2812 54.9844V59.8281C28.2812 60.4759 28.8054 61 29.4531 61H55.2344C55.8821 61 56.4062 60.4759 56.4062 59.8281V26.8594C56.4062 26.2116 55.8821 25.6875 55.2344 25.6875Z" fill="#FFC1B7"/><path d="M50.5469 21H24.7656C24.1093 21 23.5938 21.5155 23.5938 22.1719V54.9844C23.5938 55.6405 24.1093 56.1562 24.7656 56.1562H50.5469C51.2032 56.1562 51.7188 55.6405 51.7188 54.9844V22.1719C51.7188 21.5155 51.2032 21 50.5469 21ZM34.1876 28.5C34.6562 28.0312 35.3829 28.0312 35.8516 28.5L36.7656 29.4141L39.461 26.7422C39.9297 26.2734 40.6563 26.2734 41.125 26.7422C41.5702 27.1875 41.5702 27.9375 41.125 28.3828L37.6094 31.8983C37.375 32.1328 37.0703 32.25 36.7656 32.25C36.4844 32.25 36.1797 32.1328 35.9454 31.8984L34.1876 30.1407C33.7423 29.6954 33.7423 28.9453 34.1876 28.5V28.5ZM40 36.2344C40 36.8905 39.4845 37.4062 38.8281 37.4062H36.4844C35.828 37.4062 35.3125 36.8905 35.3125 36.2344C35.3125 35.578 35.828 35.0625 36.4844 35.0625H38.8281C39.4845 35.0625 40 35.578 40 36.2344ZM29.4531 35.0625H31.7969C32.4532 35.0625 32.9688 35.578 32.9688 36.2344C32.9688 36.8905 32.4532 37.4062 31.7969 37.4062H29.4531C28.7968 37.4062 28.2812 36.8905 28.2812 36.2344C28.2812 35.578 28.7968 35.0625 29.4531 35.0625ZM45.8594 51.4688H29.4531C28.7968 51.4688 28.2812 50.953 28.2812 50.2969C28.2812 49.6405 28.7968 49.125 29.4531 49.125H45.8594C46.5157 49.125 47.0312 49.6405 47.0312 50.2969C47.0312 50.953 46.5157 51.4688 45.8594 51.4688ZM45.8594 46.7812H29.4531C28.7968 46.7812 28.2812 46.2655 28.2812 45.6094C28.2812 44.953 28.7968 44.4375 29.4531 44.4375H45.8594C46.5157 44.4375 47.0312 44.953 47.0312 45.6094C47.0312 46.2655 46.5157 46.7812 45.8594 46.7812ZM45.8594 42.0938H29.4531C28.7968 42.0938 28.2812 41.578 28.2812 40.9219C28.2812 40.2655 28.7968 39.75 29.4531 39.75H45.8594C46.5157 39.75 47.0312 40.2655 47.0312 40.9219C47.0312 41.578 46.5157 42.0938 45.8594 42.0938ZM45.8594 37.4062H43.5156C42.8593 37.4062 42.3438 36.8905 42.3438 36.2344C42.3438 35.578 42.8593 35.0625 43.5156 35.0625H45.8594C46.5157 35.0625 47.0312 35.578 47.0312 36.2344C47.0312 36.8905 46.5157 37.4062 45.8594 37.4062Z" fill="#FF715B"/></svg>