<svg width="80" height="80" viewBox="0 0 80 80" fill="none" xmlns="http://www.w3.org/2000/svg"><circle cx="40" cy="40" r="40" fill="#EAFAF3"/><path d="M44.6094 60H21.1719C20.5241 60 20 59.4759 20 58.8281V26.0156C20 25.3679 20.5241 24.8438 21.1719 24.8438H35.2344C35.8821 24.8438 36.4062 25.3679 36.4062 26.0156V52.9688H44.6094C45.2571 52.9688 45.7812 53.4929 45.7812 54.1406V58.8281C45.7812 59.4759 45.2571 60 44.6094 60Z" fill="#B1ECD4"/><path d="M50.625 29.375L49.4531 20H35.3906C34.7343 20 34.2188 20.5155 34.2188 21.1719V53.9844C34.2188 54.6407 34.7343 55.1562 35.3906 55.1562H58.8281C59.4845 55.1562 60 54.6407 60 53.9844V30.5469L50.625 29.375Z" fill="#2DCA8C"/><path d="M50.625 30.5469H60C60 30.2422 59.8828 29.9375 59.6484 29.7266L50.2734 20.3516C50.0625 20.1172 49.7578 20 49.4531 20V29.375C49.4531 30.0222 49.9778 30.5469 50.625 30.5469ZM54.1406 36.4062H40.0781C39.4304 36.4062 38.9062 36.9304 38.9062 37.5781C38.9062 38.2259 39.4304 38.75 40.0781 38.75H54.1406C54.7884 38.75 55.3125 38.2259 55.3125 37.5781C55.3125 36.9304 54.7884 36.4062 54.1406 36.4062ZM54.1406 43.4375H40.0781C39.4304 43.4375 38.9062 43.9616 38.9062 44.6094C38.9062 45.2571 39.4304 45.7812 40.0781 45.7812H54.1406C54.7884 45.7812 55.3125 45.2571 55.3125 44.6094C55.3125 43.9616 54.7884 43.4375 54.1406 43.4375Z" fill="#B1ECD4"/></svg>