<svg width="80" height="80" viewBox="0 0 80 80" fill="none" xmlns="http://www.w3.org/2000/svg"><circle cx="40" cy="40" r="40" fill="#E5F1FF"/><path d="M56.4844 24.7656H23.5156C22.8684 24.7656 22.3438 25.2903 22.3438 25.9375V51.7188C22.3438 52.3659 22.8684 52.8906 23.5156 52.8906H56.4844C57.1316 52.8906 57.6562 52.3659 57.6562 51.7188V25.9375C57.6562 25.2903 57.1316 24.7656 56.4844 24.7656Z" fill="#377DFF"/><path d="M37.1033 43.3768C37.4837 43.5804 37.9461 43.5587 38.3063 43.3187L45.3375 38.6312C45.6635 38.4138 45.8594 38.048 45.8594 37.6561C45.8594 37.2642 45.6636 36.8983 45.3375 36.681L38.3063 31.9935C37.9466 31.7538 37.4844 31.7314 37.1033 31.9354C36.7223 32.1393 36.4844 32.5364 36.4844 32.9686V42.3436C36.4844 42.7758 36.7223 43.1729 37.1033 43.3768ZM58.8281 50.5467H21.1719C20.5247 50.5467 20 51.0714 20 51.7186C20 53.6602 21.574 55.2342 23.5156 55.2342H56.4844C58.426 55.2342 60 53.6602 60 51.7186C60 51.0714 59.4753 50.5467 58.8281 50.5467Z" fill="#B1CEFF"/></svg>